<?xml version="1.0" encoding="UTF-8" standalone="no"?>
<!DOCTYPE svg PUBLIC "-//W3C//DTD SVG 1.1//EN" "http://www.w3.org/Graphics/SVG/1.1/DTD/svg11.dtd">
<svg width="100%" height="100%" viewBox="0 0 4725 2253" version="1.1" xmlns="http://www.w3.org/2000/svg" xmlns:xlink="http://www.w3.org/1999/xlink" xml:space="preserve" xmlns:serif="http://www.serif.com/" style="fill-rule:evenodd;clip-rule:evenodd;stroke-linejoin:round;stroke-miterlimit:2;">
    <g transform="matrix(1,0,0,1,-21378.832126,-4996.861364)">
        <g id="Magnolia-Text-Logo-Light-Transparent" serif:id="Magnolia Text Logo Light Transparent" transform="matrix(1,0,0,0.47685,16418.202205,4996.861364)">
            <rect x="4960.63" y="0" width="4724.409" height="4724.409" style="fill:rgb(2,85,72);fill-opacity:0;"/>
            <g transform="matrix(1,0,0,1,0,71.891033)">
                <g transform="matrix(1.108398,0,0,2.324418,5973.623681,-51.537367)">
                    <g transform="matrix(1,0,0,1,0,610.679458)">
                        <g transform="matrix(2.838959,0,0,2.838959,-123.857221,-46.722488)">
                            <path d="M143.5,74.926C145.511,74.933 159.516,73.521 165.561,89.475C166.2,91.161 166.799,94.692 169.458,94.284C171.749,93.933 174.455,89.129 178.556,84.55C187.908,74.109 198.737,74.864 204.494,74.934C214.328,75.052 224.084,81.879 226.138,98.536C227.886,112.705 225.954,160.385 227.424,167.516C228.902,174.678 230.615,174.237 230.82,175.421C230.912,175.952 230.478,177.01 230.379,177.034C229.922,177.147 229.919,176.893 224.5,176.892C186.695,176.889 186.706,176.909 186.456,176.928C185.359,177.011 185.151,177.389 184.508,176.494C183.547,175.158 187.334,174.17 188.136,165.467C188.383,162.792 188.458,162.809 188.439,116.5C188.438,113.646 189.122,101.513 180.503,101.332C178.584,101.291 173.833,102.389 171.545,106.527C168.015,112.911 168.561,117.615 168.561,132.5C168.561,167.512 168.121,169.27 172.089,174.752C173.233,176.334 172.513,176.918 170.553,176.93C168.7,176.941 132.144,176.727 127.537,177.027C124.916,177.198 126.527,174.76 126.641,174.586C130.612,168.578 130.164,166.2 130.164,136.5C130.164,110.737 130.424,109.501 128.475,105.513C125.099,98.605 114.316,100.224 111.359,110.456C109.601,116.539 109.827,116.623 109.827,152.5C109.827,164.702 109.659,169.028 113.35,174.592C113.982,175.545 114.006,175.601 113.682,176.717C113.548,177.18 113.34,176.932 110.504,176.897C110.083,176.892 70.986,176.884 70.492,176.902C70.165,176.914 69.841,176.977 69.515,177C66.048,177.254 67.756,174.917 67.888,174.737C69.535,172.484 71.372,169.983 71.423,158.5C71.423,158.407 71.423,95.552 71.423,95.5C71.391,88.666 70.967,82.909 67.972,79.196C67.363,78.442 67.294,78.421 67.395,77.459C67.481,76.641 67.696,76.692 68.532,76.686C71.009,76.667 71.006,76.739 99.499,76.786C103.415,76.793 109.716,76.353 109.822,87.496C109.836,89.008 109.814,88.992 109.828,90.497C109.831,90.724 109.852,92.992 109.964,93.329C109.968,93.342 110.955,95.21 113.133,93.104C117.082,89.285 120.848,79.38 134.575,75.804C138.557,74.767 139.06,75.04 143.5,74.926Z" style="fill:rgb(2,85,72);"/>
                        </g>
                        <g transform="matrix(2.838959,0,0,2.838959,-123.857221,-46.722488)">
                            <path d="M452.315,75.545C451.923,77.918 452.123,77.935 452.084,78.14C452.046,78.337 451.862,78.474 451.766,78.651C449.291,83.221 443.72,82.914 440.502,83.01C434.365,83.193 429.641,80.277 425.508,79.546C424.087,79.295 424.182,78.956 423.621,78.954C423.518,78.953 422.917,80.052 422.949,80.244C423.04,80.792 431.23,82.665 438.226,90.735C452.051,106.681 449.495,128.594 442.344,140.403C429.864,161.012 408.249,160.835 406.298,162.166C403.335,164.187 405.662,167.045 410.48,168.56C419.734,171.469 445.078,173.915 446.354,192.509C446.457,194.01 449.319,213.114 420.6,219.949C409.27,222.645 409.155,221.825 397.501,222.028C390.04,222.158 362.809,218.575 349.369,204.625C343.82,198.865 341.197,190.385 344.348,186.385C350.464,178.62 369.546,168.987 376.557,170.102C378.768,170.453 384.096,172.173 382.542,179.509C382.455,179.924 379.458,189.159 380.643,197.479C382.823,212.777 399.42,213.706 406.869,207.984C407.595,207.426 409.806,206.116 411.351,201.452C411.99,199.523 414.662,186.185 405.183,176.823C399.694,171.401 393.553,168.783 385.669,165.122C372.945,159.213 354.881,154.748 345.808,136.353C340.284,125.155 338.873,102.203 355.09,88.045C366.043,78.483 375.208,77.131 384.481,75.39C386.913,74.933 398.943,74.532 403.512,75.436C405.872,75.902 413.278,76.68 413.506,76.667C429.158,75.79 430.862,69.142 436.439,63.441C437.012,62.855 441.801,57.676 448.202,65.74C449.19,66.984 449.981,68.453 450.115,68.701C451.837,71.896 451.569,71.992 452.315,75.545ZM395.486,81.926C394.594,82.002 393.047,81.97 391.623,82.736C380.917,88.499 380.303,113.128 380.194,115.486C379.531,129.789 381.799,140.431 382.252,142.555C385.367,157.168 394.515,164.92 401.938,155.855C412.419,143.057 410.23,111.726 408.753,103.451C404.829,81.479 396.086,82.034 395.486,81.926Z" style="fill:rgb(2,85,72);"/>
                        </g>
                        <g transform="matrix(2.838959,0,0,2.838959,-123.857221,-46.722488)">
                            <path d="M617.5,74.926C618.39,74.927 627.185,74.169 638.595,79.292C652.694,85.622 667.44,102.07 667.461,124.5C667.477,141.167 661.598,150.028 656.54,157.53C654.684,160.283 648.262,166.495 646.147,168.032C644.736,169.057 636.694,174.903 626.49,177.458C624.352,177.993 621.892,178.365 621.49,178.426C618.976,178.806 609.318,178.853 606.516,178.392C605.16,178.169 580.996,175.421 568.735,150.387C565.783,144.358 562.032,131.548 564.94,117.591C565.052,117.053 567.144,103.005 579.464,90.465C591.492,78.223 607.209,75.199 611.469,75.05C614.491,74.944 614.471,74.929 617.5,74.926ZM608.564,82.859C606.45,83.616 605.204,83.423 602.251,88.362C597.953,95.55 597.722,107.773 597.689,109.503C597.446,122.371 598.768,129.283 600.553,137.489C606.707,165.776 622.444,183.107 630.358,162.45C632.259,157.489 632.745,151.497 632.824,150.527C633.039,147.875 633.908,142.5 632.578,128.492C632.294,125.504 630.536,115.529 629.1,110.608C623.733,92.209 617.391,86.809 615.646,85.324C611.875,82.113 608.887,82.851 608.564,82.859Z" style="fill:rgb(2,85,72);"/>
                        </g>
                        <g transform="matrix(2.838959,0,0,2.838959,-123.857221,-46.722488)">
                            <path d="M454.517,76.608C457.99,76.807 457.978,76.786 479.5,76.786C488.933,76.786 494.095,75.899 495.879,82.395C497.474,88.201 495.873,92.541 497.237,93.842C499.372,95.878 503.163,87.437 509.673,81.698C515.712,76.374 523.533,74.989 526.511,74.944C532.76,74.849 536.931,74.664 541.676,77.145C542.142,77.389 545.494,79.142 547.048,80.928C555.935,91.145 555.181,103.885 555.181,127.5C555.181,167.902 554.796,168.331 558.481,174.511C558.575,174.668 559.595,176.379 558.702,176.784C558.371,176.934 555.759,176.899 555.503,176.896C555.079,176.89 517.056,176.892 516.498,176.895C513.96,176.907 513.599,177.602 512.78,176.328C511.731,174.696 516.665,174.885 516.698,158.5C516.788,114.607 516.761,114.332 516.384,110.512C515.457,101.113 509.291,101.158 507.489,101.418C495.701,103.125 496.637,119.761 496.636,125.5C496.636,166.669 496.337,167.634 498.709,172.401C500.21,175.417 502.084,176.403 499.659,176.905C499.559,176.926 499.558,176.916 496.501,176.893C485.167,176.893 473.834,176.893 462.5,176.892C455.248,176.892 455.231,177.23 454.636,177.027C454.56,177.001 453.933,175.756 453.952,175.663C454.037,175.24 454.486,174.985 454.761,174.652C454.867,174.524 454.999,174.417 455.093,174.281C458.603,169.2 458.156,165.347 458.156,125.5C458.156,86.208 458.589,84.699 454.827,79.272C454.067,78.177 454.73,77.953 454.749,77.662C454.772,77.303 454.495,76.967 454.517,76.608Z" style="fill:rgb(2,85,72);"/>
                        </g>
                        <g transform="matrix(2.838959,0,0,2.838959,-123.857221,-46.722488)">
                            <path d="M282.507,82.953C269.26,84.318 263.939,94.91 254.008,107.086C247.287,115.327 241.767,112.283 241.571,106.497C241.548,105.829 241.518,94.641 241.586,93.505C241.84,89.249 243.123,85.83 251.317,81.165C258.165,77.267 265.425,76.306 271.471,75.297C272.094,75.193 282.14,74.621 286.467,74.884C289.124,75.045 291.82,74.431 300.457,76.661C323.497,82.608 333.127,101.457 333.228,117.5C333.486,158.678 331.868,167.533 336.538,174.479C337.119,175.344 337.569,175.329 337.11,176.283C336.737,177.059 336.468,176.892 326.5,176.892C300.351,176.892 300.22,177.013 298.729,176.096C293.606,172.946 295.887,164.885 290.399,166.141C286.8,166.965 278.817,178.495 264.504,178.683C258.703,178.759 254.728,179.062 248.401,175.679C244.036,173.345 236.117,166.779 235.624,156.494C233.54,113.061 285.68,104.214 289.407,103.159C293.013,102.139 295.108,100.478 294.256,93.532C293.619,88.342 290.539,85.226 288.571,84.362C284.977,82.786 283.871,83.089 282.507,82.953ZM289.497,112.887C284.967,113.521 281.583,114.433 276.585,120.568C272.252,125.886 268.44,137.031 271.254,149.557C273.907,161.365 284.214,161.444 288.288,159.13C296.403,154.521 294.574,139.25 294.55,137.499C294.326,121.235 295.845,114.108 290.429,112.952C290.124,112.887 289.802,112.952 289.497,112.887Z" style="fill:rgb(2,85,72);"/>
                        </g>
                        <g transform="matrix(2.838959,0,0,2.838959,-123.857221,-46.722488)">
                            <path d="M822.509,82.954C810.828,84.222 805.205,92.826 797.654,102.616C795.474,105.443 789.008,115.119 783.677,111.256C781.243,109.491 781.584,106.877 781.596,96.5C781.604,89.849 781.692,87.015 791.332,81.198C796.185,78.269 806.742,75.215 816.486,75.016C824.484,74.854 833.81,73.868 845.607,78.214C862.74,84.526 872.836,100.217 873.153,115.507C873.357,125.351 872.746,155.664 873.534,164.497C874.473,175.024 878.317,174.426 877.263,176.35C876.886,177.038 876.653,176.892 866.5,176.892C840.398,176.892 840.262,177.016 838.748,176.074C833.871,173.04 836.079,166.111 831.516,166.007C827.319,165.911 821.3,176.6 807.501,178.506C806.833,178.598 798.956,179.057 795.544,178.311C785.639,176.145 780.508,168.889 780.313,168.644C772.086,158.315 776.164,140.399 781.705,131.625C786.275,124.388 793.253,116.817 808.599,109.717C818.471,105.149 830.418,103.424 832.224,102.092C836.706,98.787 834.307,89.671 831.494,86.506C830.227,85.08 828.855,84.436 828.592,84.313C825.877,83.039 824.453,83.073 822.509,82.954ZM829.504,112.872C828.081,113.094 821.687,113.266 815.847,121.74C806.929,134.68 808.168,161.806 824.477,160.264C832.008,159.553 834.493,151.711 834.742,146.512C834.855,144.153 834.842,120.417 834.571,118.49C833.773,112.799 831.144,113.182 829.504,112.872Z" style="fill:rgb(2,85,72);"/>
                        </g>
                        <g transform="matrix(2.838959,0,0,2.838959,-123.857221,-46.722488)">
                            <path d="M708.5,176.892C683.007,176.892 682.918,176.983 681.609,176.282C676.649,173.626 677.288,168.404 677.288,152.5C677.288,60.085 677.313,60.088 677.088,58.554C675.926,50.611 669.773,52.018 669.262,49.568C668.938,48.011 670.542,47.058 670.75,46.934C671.121,46.713 700.634,31.991 709.505,31.64C715.202,31.415 715.694,32.797 715.712,38.5C715.814,70.815 715.446,160.744 715.977,165.457C716.858,173.269 719.554,174.682 719.708,175.441C719.789,175.835 719.451,176.993 719.358,177.026C718.992,177.156 718.98,176.899 714.5,176.893C712.5,176.892 710.5,176.892 708.5,176.892Z" style="fill:rgb(2,85,72);"/>
                        </g>
                        <g transform="matrix(2.838959,0,0,2.838959,-123.857221,-46.722488)">
                            <path d="M761.503,74.93C762.185,75.012 766.056,74.311 766.629,78.485C766.844,80.048 766.649,154.698 766.739,160.494C766.938,173.244 770.868,174.991 771.003,175.677C771.067,176.003 770.735,176.285 770.589,176.584C770.284,177.207 770.148,177.071 769.45,177.037C766.258,176.883 765.198,176.832 729.5,176.893C724.862,176.9 724.543,177.273 724.385,176.615C724.137,175.58 724.126,175.523 724.75,174.652C726.723,171.9 727.168,170.451 727.872,165.553C728.617,160.367 728.152,101.761 728.121,101.552C727.249,95.701 724.027,94.809 723.477,94.546C723.181,94.404 720.022,92.89 722.534,90.542C723.038,90.071 740.943,81.413 745.543,79.603C754.627,76.027 757.422,75.053 761.503,74.93Z" style="fill:rgb(2,85,72);"/>
                        </g>
                    </g>
                    <g transform="matrix(1.774595,0,0,1.774595,738.817926,1232.914137)">
                        <path d="M403.501,81.965C398.975,82.027 393.446,82.07 386.029,74.971C371.986,61.529 375.97,34.623 397.515,28.552C398.298,28.331 398.275,28.144 404.496,27.969C419.3,27.553 436.332,47.217 425.53,68.516C423.684,72.155 418.588,78.362 411.59,80.762C407.68,82.104 407.625,81.899 403.501,81.965ZM403.497,32.951C402.056,33.043 397.37,33.178 393.239,36.119C388.861,39.236 387.664,41.571 386.198,44.349C381.69,52.891 383.61,63.769 388.964,70.108C398.478,81.372 416.184,79.014 421.773,62.596C422.188,61.378 424.612,54.255 421.467,46.513C416.307,33.813 406.441,33.173 403.497,32.951ZM44.5,28.034C61.901,28.034 61.989,27.855 64.371,28.823C75.632,33.402 78.63,48.17 70.912,56.862C65.632,62.808 60.921,61.966 55.5,61.966C43.424,61.966 42.609,61.684 42.212,63.431C42.081,64.006 42.211,80.14 42.123,80.446C41.65,82.094 41.244,81.871 39.515,81.965C39.286,81.977 37.299,82.085 36.727,81.323C36.3,80.753 36.35,80.663 36.35,43.5C36.35,29.357 36.281,29.272 36.727,28.677C37.345,27.854 39.685,28.034 44.5,28.034ZM57.5,32.94C51.998,33.066 52.018,33.002 46.5,33.008C43.449,33.012 42.232,32.433 42.155,35.492C42.153,35.535 42.154,54.458 42.155,54.508C42.199,57.096 42.909,57.147 45.501,57.06C52.527,56.824 52.508,57.142 59.512,56.985C68.359,56.788 72.276,44.439 66.792,37.286C62.922,32.239 58.804,33.01 57.5,32.94ZM121.496,28.039C123.539,28.276 124.054,27.92 125.239,30.613C125.914,32.146 127.378,35.925 127.597,36.461C135.241,55.121 135.489,54.997 143.11,73.662C145.71,80.029 146.223,80.928 145.612,81.613C145.041,82.253 141.17,82.083 140.496,81.505C139.272,80.457 135.27,69.038 134.14,66.694C133.325,65.004 131.156,65.322 124.5,65.322C110.381,65.322 110.131,65.16 109.2,66.257C108.645,66.911 104.596,77.409 104.219,78.387C103.351,80.638 102.844,81.925 100.489,82.03C97.767,82.151 96.427,82.021 97.47,79.489C97.901,78.442 97.929,78.473 98.341,77.433C98.73,76.448 116.442,34.151 118.086,30.324C119.344,27.398 120.121,28.249 121.496,28.039ZM122.124,35.887C121.782,35.888 121.84,36.083 121.49,36.084C120.866,36.087 120.938,35.868 120.894,35.892C120.739,35.977 120.387,37.292 120.353,37.417C119.404,40.967 111.953,58.654 111.745,59.536C111.517,60.502 112.491,60.954 112.616,61.012C112.838,61.115 128.128,61.052 129.477,61.047C130.489,61.043 130.639,61.168 131.17,60.31C131.469,59.826 131.296,59.394 130.191,56.616C126.06,46.228 125.796,46.341 122.124,35.887ZM499.484,81.959C499.181,81.901 497.714,82.348 495.955,80.132C495.036,78.975 493.93,77.538 493.755,77.311C492.177,75.263 482.302,62.8 482.228,62.706C472.998,50.968 466.352,42.703 464.667,40.219C464.547,40.042 464.612,39.65 464.399,39.638C463.941,39.612 463.514,39.906 463.115,40.131C462.404,40.533 462.783,40.726 462.904,41.525C463.187,43.39 463.154,43.377 463.154,65.5C463.154,80.739 463.262,80.911 462.558,81.572C462.081,82.019 457.859,82.742 457.399,80.52C457.319,80.134 457.319,29.867 457.399,29.48C457.836,27.368 461.298,27.915 462.47,28.545C463.471,29.082 468.161,35.581 472.308,40.655C477.746,47.306 477.487,47.487 482.884,54.189C491.095,64.385 490.967,64.47 491.687,65.35C495.852,70.437 495.374,70.787 495.828,71.129C495.991,71.252 497.053,71.296 497.15,71.209C497.508,70.887 497.327,68.71 497.31,68.494C497.122,66.232 497.211,29.674 497.261,29.449C497.307,29.239 497.584,27.986 499.516,27.967C502.081,27.942 502.828,27.931 502.868,30.491C502.869,30.551 502.869,79.464 502.868,79.509C502.798,82.537 501.192,81.997 499.484,81.959ZM191.488,81.961C189.714,81.651 189.549,81.949 188.897,81.166C188.232,80.367 171.254,38.937 168.216,31.615C168.018,31.139 165.84,27.784 169.511,27.954C170.939,28.02 172.475,28.138 173.053,28.863C173.74,29.725 179.069,43.216 179.567,44.475C182.094,50.873 190.054,69.961 190.493,71.503C190.551,71.706 191.191,73.952 192.384,73.35C192.746,73.166 193.66,70.014 194.698,67.586C195.758,65.103 203.07,46.879 203.632,45.556C206.628,38.507 209.891,29.529 210.716,28.71C211.949,27.486 215.697,28.197 215.701,28.199C216.478,28.517 216.318,29.353 216.297,29.463C216.28,29.553 195.934,78.688 195.589,79.537C194.31,82.682 192.65,81.897 191.488,81.961ZM312.5,81.966C285.925,81.966 285.931,81.958 283.504,82.035C280.127,82.142 280.486,80.862 280.486,77.5C280.485,73.74 280.478,30.859 280.486,30.5C280.542,28.131 281.125,28.052 283.498,27.965C286.805,27.844 286.305,29.193 286.306,32.5C286.312,75.64 286.225,75.743 286.688,76.351C287.251,77.091 287.465,76.992 308.5,76.992C315.909,76.992 317.632,76.448 317.65,79.499C317.651,79.699 317.661,81.421 316.644,81.795C316.21,81.954 312.832,81.965 312.5,81.966ZM245.506,82.034C244.402,81.787 242.891,82.315 242.847,79.495C242.841,79.126 242.846,36.26 242.846,32.5C242.846,29.245 242.245,27.867 245.506,27.966C247.944,28.039 248.59,28.063 248.649,30.497C248.65,30.544 248.65,79.44 248.649,79.503C248.6,82.531 246.78,81.892 245.506,82.034ZM346.506,82.034C345.402,81.787 343.891,82.315 343.847,79.495C343.841,79.126 343.846,36.26 343.846,32.5C343.846,29.245 343.245,27.867 346.506,27.966C348.944,28.039 349.59,28.063 349.649,30.497C349.65,30.544 349.65,79.44 349.649,79.503C349.6,82.531 347.78,81.892 346.506,82.034Z" style="fill:rgb(2,85,72);"/>
                    </g>
                </g>
                <g>
                    <g transform="matrix(0.599376,0,0,1.256948,7647.850729,1391.799317)">
                        <path d="M857.047,105.421C858.484,99.555 859.234,92.447 869.904,77.809C876.212,69.154 892.797,52.537 896.554,50.602C904.309,46.606 930.969,71.396 936.15,77.785C960.664,108.014 939.484,159.554 939.042,160.114C919.451,184.966 917.435,199.794 910.139,222.263C909.674,223.695 896.156,223.735 895.557,221.479C882.267,171.373 852.433,156.247 857.047,105.421Z" style="fill:rgb(2,85,72);"/>
                    </g>
                    <g transform="matrix(0.599376,0,0,1.256948,7647.850729,1391.799317)">
                        <path d="M1022.439,112.464L1022.649,117.488C1021.94,118.956 1017.918,165.539 970.241,191.016C943.421,205.347 942.453,204.613 927.439,224.446C926.16,226.135 916.936,224.071 917.673,222.517C928.564,199.526 931.067,200.693 943.216,164.375C946.834,153.557 1016.992,113.042 1022.439,112.464Z" style="fill:rgb(2,85,72);"/>
                    </g>
                    <g transform="matrix(0.599376,0,0,1.256948,7647.850729,1391.799317)">
                        <path d="M889.321,214.442C878.855,213.885 787.404,94.105 851.913,35.954C856.822,31.528 874.747,48.328 872.678,52.575C861.72,75.069 863.666,75.687 862.593,77.556C834.682,126.206 862.883,145.133 889.321,214.442Z" style="fill:rgb(2,85,72);"/>
                    </g>
                    <g transform="matrix(0.599376,0,0,1.256948,7647.850729,1391.799317)">
                        <path d="M846.566,210.049C843.401,209.49 818.138,205.028 807.59,200.297C768.78,182.886 779.615,146.198 782.458,148.576C808.376,170.255 861.914,190.102 886.427,217.567C893.9,225.939 884.932,223.758 884.489,223.523C866.53,213.996 866.908,212.901 846.566,210.049Z" style="fill:rgb(2,85,72);"/>
                    </g>
                    <g transform="matrix(0.599376,0,0,1.256948,7647.850729,1391.799317)">
                        <path d="M984.751,65.464C985.408,75.509 989.522,97.818 966.129,136.265C965.162,137.854 963.777,136.274 948.173,151.035C943.154,155.782 955.034,123.044 950.133,100.572C946.417,83.527 955.677,85.624 966.447,60.478C974.468,41.748 970.196,33.454 972.445,33.305C978.143,32.926 984.203,62.764 984.751,65.464Z" style="fill:rgb(2,85,72);"/>
                    </g>
                    <g transform="matrix(0.599376,0,0,1.256948,7647.850729,1391.799317)">
                        <path d="M871.344,67.125C869.939,65.142 873.265,45.612 903.726,28.917C912.999,23.834 929.963,41.1 936.069,50.763C947.093,68.208 938.948,71.8 938.412,72.396C935.93,75.153 926.663,58.795 904.31,46.859C901.579,45.401 893.658,41.171 871.344,67.125Z" style="fill:rgb(2,85,72);"/>
                    </g>
                    <g transform="matrix(0.599376,0,0,1.256948,7647.850729,1391.799317)">
                        <path d="M923.329,236.424C901.965,273.964 880.53,228.859 889.46,227.25C894.642,226.316 912.855,226.597 921.543,228.297C926.787,229.322 924.994,231.297 923.329,236.424Z" style="fill:rgb(2,85,72);"/>
                    </g>
                    <g transform="matrix(0.599376,0,0,1.256948,7647.850729,1391.799317)">
                        <path d="M961.323,48.374C966.388,39.461 966.352,39.516 966.793,38.748C971.272,30.951 966.404,63.77 948.132,86.142C947.111,87.392 945.714,87.516 940.191,77.633C938.782,75.112 939.916,74.831 961.323,48.374Z" style="fill:rgb(2,85,72);"/>
                    </g>
                    <g transform="matrix(0.599376,0,0,1.256948,7647.850729,1391.799317)">
                        <path d="M833.318,169.929C836.086,171.341 867.158,187.188 864.243,193.426C862.211,197.777 862.441,189.412 811.881,164.063C791.862,154.026 831.658,169.292 833.318,169.929Z" style="fill:rgb(2,85,72);"/>
                    </g>
                    <g transform="matrix(0.599376,0,0,1.256948,7647.850729,1391.799317)">
                        <path d="M916.82,210.488C917.886,207.622 926.382,184.782 932.724,175.729C940.734,164.294 927.033,192.413 918.492,211.493C916.694,213.732 916.988,211.326 916.82,210.488Z" style="fill:rgb(2,85,72);"/>
                    </g>
                </g>
            </g>
        </g>
    </g>
</svg>
